<svg id="Camada_1" data-name="Camada 1" xmlns="http://www.w3.org/2000/svg" viewBox="0 0 360 433.02"><polygon points="240 25.99 240 60.17 239.21 60.17 240 60.63 240 77.94 224.99 86.6 210 77.95 210 43.31 195 34.64 180 43.3 180 210.17 199.01 210.17 210 216.51 224.99 225.17 210 233.83 199.01 240.17 180 240.17 180 424.36 165 433.02 150 424.36 150 25.98 165 17.32 180 8.66 195 0 210 8.67 224.99 17.32 240 25.99"/><polygon points="120 51.96 120 381.06 119.21 381.51 105 389.72 90.78 381.51 90 381.06 90 231.51 30 231.51 30 329.09 14.99 337.75 0 329.09 0 103.93 14.99 95.27 30 103.93 30 201.51 90 201.51 90 51.96 90.78 51.51 105 43.3 119.21 51.51 120 51.96"/><polygon points="360 294.45 360 346.41 351.17 351.51 344.99 355.08 330 363.73 314.99 372.4 300 381.05 299.21 381.51 284.99 389.72 270.78 381.51 270 381.06 270 51.96 270.78 51.51 284.99 43.3 299.21 51.51 300 51.97 300 346.41 314.99 337.76 330 329.09 330 294.45 335.09 291.51 345 285.79 354.9 291.51 360 294.45"/></svg>